# Blender v2.93.1 OBJ File: 'Refrigerator for obj.blend'
# www.blender.org
mtllib Refrigerator.mtl
o Cube
v 1.000000 2.000000 -1.000000
v 1.000000 -2.000000 -1.000000
v 1.000000 2.000000 1.000000
v 1.000000 -2.000000 1.000000
v -1.000000 2.000000 -1.000000
v -1.000000 -2.000000 -1.000000
v -1.000000 2.000000 1.000000
v -1.000000 -2.000000 1.000000
vt 0.625000 0.500000
vt 0.875000 0.500000
vt 0.875000 0.750000
vt 0.625000 0.750000
vt 0.375000 0.750000
vt 0.625000 1.000000
vt 0.375000 1.000000
vt 0.375000 0.000000
vt 0.625000 0.000000
vt 0.625000 0.250000
vt 0.375000 0.250000
vt 0.125000 0.500000
vt 0.375000 0.500000
vt 0.125000 0.750000
vn 0.0000 1.0000 0.0000
vn 0.0000 0.0000 1.0000
vn -1.0000 0.0000 0.0000
vn 0.0000 -1.0000 0.0000
vn 1.0000 0.0000 0.0000
vn 0.0000 0.0000 -1.0000
usemtl Fridge
s off
f 1/1/1 5/2/1 7/3/1 3/4/1
f 4/5/2 3/4/2 7/6/2 8/7/2
f 8/8/3 7/9/3 5/10/3 6/11/3
f 6/12/4 2/13/4 4/5/4 8/14/4
f 2/13/5 1/1/5 3/4/5 4/5/5
f 6/11/6 5/10/6 1/1/6 2/13/6
o Cube.001
v 1.000000 0.400000 1.000000
v 1.000000 2.000000 1.000000
v 1.000000 0.400000 -1.000000
v 1.000000 2.000000 -1.000000
v 1.100000 0.400000 1.000000
v 1.100000 2.000000 1.000000
v 1.100000 0.400000 -1.000000
v 1.100000 2.000000 -1.000000
vt 0.375000 0.000000
vt 0.625000 0.000000
vt 0.625000 0.250000
vt 0.375000 0.250000
vt 0.625000 0.500000
vt 0.375000 0.500000
vt 0.625000 0.750000
vt 0.375000 0.750000
vt 0.625000 1.000000
vt 0.375000 1.000000
vt 0.125000 0.500000
vt 0.125000 0.750000
vt 0.875000 0.500000
vt 0.875000 0.750000
vn -1.0000 0.0000 0.0000
vn 0.0000 0.0000 -1.0000
vn 1.0000 0.0000 0.0000
vn 0.0000 0.0000 1.0000
vn 0.0000 -1.0000 0.0000
vn 0.0000 1.0000 0.0000
usemtl Door
s off
f 9/15/7 10/16/7 12/17/7 11/18/7
f 11/18/8 12/17/8 16/19/8 15/20/8
f 15/20/9 16/19/9 14/21/9 13/22/9
f 13/22/10 14/21/10 10/23/10 9/24/10
f 11/25/11 15/20/11 13/22/11 9/26/11
f 16/19/12 12/27/12 10/28/12 14/21/12
o Cube.002
v 1.000000 -2.000000 1.000000
v 1.000000 0.200000 1.000000
v 1.000000 -2.000000 -1.000000
v 1.000000 0.200000 -1.000000
v 1.100000 -2.000000 1.000000
v 1.100000 0.200000 1.000000
v 1.100000 -2.000000 -1.000000
v 1.100000 0.200000 -1.000000
vt 0.375000 0.000000
vt 0.625000 0.000000
vt 0.625000 0.250000
vt 0.375000 0.250000
vt 0.625000 0.500000
vt 0.375000 0.500000
vt 0.625000 0.750000
vt 0.375000 0.750000
vt 0.625000 1.000000
vt 0.375000 1.000000
vt 0.125000 0.500000
vt 0.125000 0.750000
vt 0.875000 0.500000
vt 0.875000 0.750000
vn -1.0000 0.0000 0.0000
vn 0.0000 0.0000 -1.0000
vn 1.0000 0.0000 0.0000
vn 0.0000 0.0000 1.0000
vn 0.0000 -1.0000 0.0000
vn 0.0000 1.0000 0.0000
usemtl Door
s off
f 17/29/13 18/30/13 20/31/13 19/32/13
f 19/32/14 20/31/14 24/33/14 23/34/14
f 23/34/15 24/33/15 22/35/15 21/36/15
f 21/36/16 22/35/16 18/37/16 17/38/16
f 19/39/17 23/34/17 21/36/17 17/40/17
f 24/33/18 20/41/18 18/42/18 22/35/18
o Plane
v 1.168921 1.883083 0.675000
v 1.168921 1.883083 0.525000
v 1.244709 0.620445 0.675000
v 1.244709 0.620445 0.525000
v 1.275767 0.736356 0.675000
v 1.306825 0.852267 0.675000
v 1.337883 0.968178 0.675000
v 1.365078 1.085124 0.675000
v 1.375852 1.206470 0.675000
v 1.369239 1.332476 0.675000
v 1.345240 1.463139 0.675000
v 1.303853 1.598462 0.675000
v 1.245081 1.738443 0.675000
v 1.245081 1.738443 0.525000
v 1.303853 1.598462 0.525000
v 1.345240 1.463139 0.525000
v 1.369239 1.332476 0.525000
v 1.375852 1.206470 0.525000
v 1.365078 1.085124 0.525000
v 1.337883 0.968178 0.525000
v 1.306825 0.852267 0.525000
v 1.275767 0.736356 0.525000
v 1.205586 1.741052 0.675000
v 1.129426 1.885692 0.675000
v 1.129426 1.885692 0.525000
v 1.236272 0.738964 0.525000
v 1.205214 0.623053 0.525000
v 1.205214 0.623053 0.675000
v 1.236272 0.738964 0.675000
v 1.267331 0.854875 0.675000
v 1.298389 0.970787 0.675000
v 1.325583 1.087733 0.675000
v 1.336357 1.209079 0.675000
v 1.329744 1.335084 0.675000
v 1.305745 1.465748 0.675000
v 1.264359 1.601071 0.675000
v 1.205586 1.741052 0.525000
v 1.264359 1.601071 0.525000
v 1.305745 1.465748 0.525000
v 1.329744 1.335084 0.525000
v 1.336357 1.209079 0.525000
v 1.325583 1.087733 0.525000
v 1.298389 0.970787 0.525000
v 1.267331 0.854875 0.525000
v 1.151609 1.725955 0.675000
v 1.075449 1.870595 0.675000
v 1.075449 1.870595 0.525000
v 1.151609 1.725955 0.525000
v 1.178317 0.754493 0.525000
v 1.147258 0.638582 0.525000
v 1.147258 0.638582 0.675000
v 1.178317 0.754493 0.675000
vt 0.000000 0.900000
vt 0.000000 1.000000
vt 1.000000 1.000000
vt 1.000000 0.900000
vt 0.000000 0.000000
vt 0.000000 0.100000
vt 1.000000 0.100000
vt 1.000000 0.000000
vt 0.000000 0.200000
vt 1.000000 0.200000
vt 0.000000 0.300000
vt 1.000000 0.300000
vt 0.000000 0.400000
vt 1.000000 0.400000
vt 0.000000 0.500000
vt 1.000000 0.500000
vt 0.000000 0.600000
vt 1.000000 0.600000
vt 0.000000 0.700000
vt 1.000000 0.700000
vt 0.000000 0.800000
vt 1.000000 0.800000
vt 0.000000 0.900000
vt 1.000000 0.900000
vt 1.000000 0.900000
vt 0.000000 0.900000
vt 1.000000 0.000000
vt 1.000000 0.100000
vt 1.000000 0.100000
vt 1.000000 0.000000
vt 0.000000 0.100000
vt 1.000000 0.200000
vt 0.000000 0.200000
vt 1.000000 0.300000
vt 0.000000 0.300000
vt 1.000000 0.400000
vt 0.000000 0.400000
vt 1.000000 0.500000
vt 0.000000 0.500000
vt 1.000000 0.600000
vt 0.000000 0.600000
vt 1.000000 0.700000
vt 0.000000 0.700000
vt 1.000000 0.800000
vt 0.000000 0.800000
vt 0.000000 0.000000
vt 1.000000 1.000000
vt 0.000000 1.000000
vt 0.000000 0.000000
vt 0.000000 0.100000
vt 1.000000 1.000000
vt 0.000000 1.000000
vn 0.6830 -0.1830 0.7071
vn 0.4708 -0.6574 0.5883
vn 0.4708 -0.6574 -0.5883
vn 0.6830 -0.1830 -0.7071
vn 0.4308 0.6632 0.6120
vn 0.6480 0.3059 0.6974
vn 0.6480 0.3059 -0.6974
vn 0.4308 0.6632 -0.6120
vn 0.6752 0.2443 0.6959
vn 0.6752 0.2443 -0.6959
vn 0.6991 0.1705 0.6944
vn 0.6991 0.1705 -0.6944
vn 0.7161 0.0842 0.6928
vn 0.7161 0.0842 -0.6928
vn 0.7222 -0.0130 0.6916
vn 0.7222 -0.0130 -0.6916
vn 0.7131 -0.1140 0.6917
vn 0.7131 -0.1140 -0.6917
vn 0.6896 -0.1725 0.7034
vn 0.6896 -0.1725 -0.7034
vn -0.2132 0.3693 0.9045
vn -0.2132 0.3693 -0.9045
vn -0.4082 0.7071 -0.5773
vn -0.4082 0.7071 0.5773
vn -0.0765 0.7374 -0.6710
vn -0.1988 -0.4112 -0.8896
vn -0.3196 -0.7420 -0.5893
vn -0.7565 0.3258 -0.5670
vn -0.1988 -0.4112 0.8896
vn -0.6539 -0.2366 -0.7186
vn -0.6539 -0.2366 0.7186
vn -0.6739 -0.1643 -0.7203
vn -0.6739 -0.1643 0.7203
vn -0.6872 -0.0808 -0.7219
vn -0.6872 -0.0808 0.7219
vn -0.6904 0.0125 -0.7233
vn -0.6904 0.0125 0.7233
vn -0.6820 0.1090 -0.7232
vn -0.6820 0.1090 0.7232
vn -0.6823 0.1707 -0.7109
vn -0.6823 0.1707 0.7109
vn -0.6830 0.1830 -0.7071
vn -0.6830 0.1830 0.7071
vn -0.0765 0.7374 0.6710
vn -0.1187 -0.7181 -0.6857
vn -0.1187 -0.7181 0.6857
vn -0.7565 0.3258 0.5670
vn -0.3196 -0.7420 0.5893
vn -0.7071 -0.4082 -0.5773
vn -0.7071 -0.4082 0.5773
usemtl Handle
s 1
f 29/43/19 27/44/20 28/45/21 46/46/22
f 25/47/23 37/48/24 38/49/25 26/50/26
f 37/48/24 36/51/27 39/52/28 38/49/25
f 36/51/27 35/53/29 40/54/30 39/52/28
f 35/53/29 34/55/31 41/56/32 40/54/30
f 34/55/31 33/57/33 42/58/34 41/56/32
f 33/57/33 32/59/35 43/60/36 42/58/34
f 32/59/35 31/61/37 44/62/38 43/60/36
f 31/61/37 30/63/19 45/64/22 44/62/38
f 30/63/19 29/43/19 46/46/22 45/64/22
f 53/65/39 50/66/40 73/67/41 76/68/42
f 49/69/43 61/70/44 72/71/45 71/72/46
f 47/73/47 61/70/44 62/74/48 60/75/49
f 60/75/49 62/74/48 63/76/50 59/77/51
f 59/77/51 63/76/50 64/78/52 58/79/53
f 58/79/53 64/78/52 65/80/54 57/81/55
f 57/81/55 65/80/54 66/82/56 56/83/57
f 56/83/57 66/82/56 67/84/58 55/85/59
f 55/85/59 67/84/58 68/86/60 54/87/61
f 54/87/61 68/86/60 50/66/40 53/65/39
f 32/59/35 33/57/33 57/81/55 56/83/57
f 25/47/23 26/50/26 49/69/43 48/88/62
f 40/54/30 41/56/32 64/78/52 63/76/50
f 33/57/33 34/55/31 58/79/53 57/81/55
f 46/46/22 28/45/21 51/89/63 50/66/40
f 41/56/32 42/58/34 65/80/54 64/78/52
f 34/55/31 35/53/29 59/77/51 58/79/53
f 28/45/21 27/44/20 52/90/64 51/89/63
f 42/58/34 43/60/36 66/82/56 65/80/54
f 35/53/29 36/51/27 60/75/49 59/77/51
f 27/44/20 29/43/19 53/65/39 52/90/64
f 43/60/36 44/62/38 67/84/58 66/82/56
f 36/51/27 37/48/24 47/73/47 60/75/49
f 29/43/19 30/63/19 54/87/61 53/65/39
f 44/62/38 45/64/22 68/86/60 67/84/58
f 26/50/26 38/49/25 61/70/44 49/69/43
f 30/63/19 31/61/37 55/85/59 54/87/61
f 45/64/22 46/46/22 50/66/40 68/86/60
f 38/49/25 39/52/28 62/74/48 61/70/44
f 31/61/37 32/59/35 56/83/57 55/85/59
f 37/48/24 25/47/23 48/88/62 47/73/47
f 39/52/28 40/54/30 63/76/50 62/74/48
f 70/91/65 71/72/46 72/71/45 69/92/66
f 47/73/47 48/88/62 70/91/65 69/92/66
f 61/70/44 47/73/47 69/92/66 72/71/45
f 48/88/62 49/69/43 71/72/46 70/91/65
f 76/68/42 73/67/41 74/93/67 75/94/68
f 52/90/64 53/65/39 76/68/42 75/94/68
f 50/66/40 51/89/63 74/93/67 73/67/41
f 51/89/63 52/90/64 75/94/68 74/93/67
o Plane.001
v 1.237285 0.116968 0.675000
v 1.237285 0.116968 0.525000
v 1.156658 -1.808165 0.675000
v 1.156658 -1.808165 0.525000
v 1.205326 -1.626532 0.675000
v 1.253995 -1.444899 0.675000
v 1.302663 -1.263266 0.675000
v 1.347271 -1.080545 0.675000
v 1.374621 -0.893200 0.675000
v 1.383699 -0.700958 0.675000
v 1.374505 -0.503821 0.675000
v 1.347038 -0.301787 0.675000
v 1.301298 -0.094858 0.675000
v 1.301298 -0.094858 0.525000
v 1.347038 -0.301787 0.525000
v 1.374505 -0.503821 0.525000
v 1.383699 -0.700958 0.525000
v 1.374621 -0.893200 0.525000
v 1.347271 -1.080545 0.525000
v 1.302663 -1.263266 0.525000
v 1.253995 -1.444899 0.525000
v 1.205326 -1.626532 0.525000
v 1.258762 -0.095955 0.675000
v 1.194750 0.115870 0.675000
v 1.194750 0.115870 0.525000
v 1.162791 -1.627630 0.525000
v 1.114122 -1.809263 0.525000
v 1.114122 -1.809263 0.675000
v 1.162791 -1.627630 0.675000
v 1.211459 -1.445997 0.675000
v 1.260127 -1.264364 0.675000
v 1.304735 -1.081643 0.675000
v 1.332086 -0.894297 0.675000
v 1.341164 -0.702056 0.675000
v 1.331969 -0.504919 0.675000
v 1.304502 -0.302885 0.675000
v 1.258762 -0.095955 0.525000
v 1.304502 -0.302885 0.525000
v 1.331969 -0.504919 0.525000
v 1.341164 -0.702056 0.525000
v 1.332086 -0.894297 0.525000
v 1.304735 -1.081643 0.525000
v 1.260127 -1.264364 0.525000
v 1.211459 -1.445997 0.525000
v 1.198221 -0.126054 0.675000
v 1.134209 0.085772 0.675000
v 1.134209 0.085772 0.525000
v 1.198221 -0.126054 0.525000
v 1.101882 -1.611310 0.525000
v 1.053214 -1.792943 0.525000
v 1.053214 -1.792943 0.675000
v 1.101882 -1.611310 0.675000
vt 0.000000 0.900000
vt 0.000000 1.000000
vt 1.000000 1.000000
vt 1.000000 0.900000
vt 0.000000 0.000000
vt 0.000000 0.100000
vt 1.000000 0.100000
vt 1.000000 0.000000
vt 0.000000 0.200000
vt 1.000000 0.200000
vt 0.000000 0.300000
vt 1.000000 0.300000
vt 0.000000 0.400000
vt 1.000000 0.400000
vt 0.000000 0.500000
vt 1.000000 0.500000
vt 0.000000 0.600000
vt 1.000000 0.600000
vt 0.000000 0.700000
vt 1.000000 0.700000
vt 0.000000 0.800000
vt 1.000000 0.800000
vt 0.000000 0.900000
vt 1.000000 0.900000
vt 1.000000 0.900000
vt 0.000000 0.900000
vt 1.000000 0.000000
vt 1.000000 0.100000
vt 1.000000 0.100000
vt 1.000000 0.000000
vt 0.000000 0.100000
vt 1.000000 0.200000
vt 0.000000 0.200000
vt 1.000000 0.300000
vt 0.000000 0.300000
vt 1.000000 0.400000
vt 0.000000 0.400000
vt 1.000000 0.500000
vt 0.000000 0.500000
vt 1.000000 0.600000
vt 0.000000 0.600000
vt 1.000000 0.700000
vt 0.000000 0.700000
vt 1.000000 0.800000
vt 0.000000 0.800000
vt 0.000000 0.000000
vt 1.000000 1.000000
vt 0.000000 1.000000
vt 0.000000 0.000000
vt 0.000000 0.100000
vt 1.000000 1.000000
vt 0.000000 1.000000
vn 0.6830 -0.1830 0.7071
vn 0.4979 -0.6318 0.5940
vn 0.4979 -0.6318 -0.5940
vn 0.6830 -0.1830 -0.7071
vn 0.4717 0.6528 0.5927
vn 0.6922 0.1808 0.6987
vn 0.6922 0.1808 -0.6987
vn 0.4717 0.6528 -0.5927
vn 0.7050 0.1256 0.6979
vn 0.7050 0.1256 -0.6979
vn 0.7138 0.0650 0.6973
vn 0.7138 0.0650 -0.6973
vn 0.7173 -0.0002 0.6967
vn 0.7173 -0.0002 -0.6967
vn 0.7145 -0.0688 0.6962
vn 0.7145 -0.0688 -0.6962
vn 0.7042 -0.1370 0.6966
vn 0.7042 -0.1370 -0.6966
vn 0.6874 -0.1760 0.7046
vn 0.6874 -0.1760 -0.7046
vn -0.2132 0.3693 0.9045
vn -0.2132 0.3693 -0.9045
vn -0.4082 0.7071 -0.5773
vn -0.4082 0.7071 0.5773
vn -0.1809 0.7277 -0.6615
vn -0.1568 -0.3281 -0.9315
vn -0.3262 -0.7548 -0.5690
vn -0.7433 0.3213 -0.5867
vn -0.1568 -0.3281 0.9315
vn -0.6868 -0.1223 -0.7165
vn -0.6868 -0.1223 0.7165
vn -0.6940 -0.0632 -0.7172
vn -0.6940 -0.0632 0.7172
vn -0.6962 0.0002 -0.7178
vn -0.6962 0.0002 0.7178
vn -0.6925 0.0667 -0.7183
vn -0.6925 0.0667 0.7183
vn -0.6833 0.1330 -0.7179
vn -0.6833 0.1330 0.7179
vn -0.6825 0.1747 -0.7096
vn -0.6825 0.1747 0.7096
vn -0.6830 0.1830 -0.7071
vn -0.6830 0.1830 0.7071
vn -0.1809 0.7277 0.6615
vn -0.0867 -0.7316 -0.6762
vn -0.0867 -0.7316 0.6762
vn -0.7433 0.3213 0.5867
vn -0.3262 -0.7548 0.5690
vn -0.7071 -0.4082 -0.5773
vn -0.7071 -0.4082 0.5773
usemtl Handle
s 1
f 81/95/69 79/96/70 80/97/71 98/98/72
f 77/99/73 89/100/74 90/101/75 78/102/76
f 89/100/74 88/103/77 91/104/78 90/101/75
f 88/103/77 87/105/79 92/106/80 91/104/78
f 87/105/79 86/107/81 93/108/82 92/106/80
f 86/107/81 85/109/83 94/110/84 93/108/82
f 85/109/83 84/111/85 95/112/86 94/110/84
f 84/111/85 83/113/87 96/114/88 95/112/86
f 83/113/87 82/115/69 97/116/72 96/114/88
f 82/115/69 81/95/69 98/98/72 97/116/72
f 105/117/89 102/118/90 125/119/91 128/120/92
f 101/121/93 113/122/94 124/123/95 123/124/96
f 99/125/97 113/122/94 114/126/98 112/127/99
f 112/127/99 114/126/98 115/128/100 111/129/101
f 111/129/101 115/128/100 116/130/102 110/131/103
f 110/131/103 116/130/102 117/132/104 109/133/105
f 109/133/105 117/132/104 118/134/106 108/135/107
f 108/135/107 118/134/106 119/136/108 107/137/109
f 107/137/109 119/136/108 120/138/110 106/139/111
f 106/139/111 120/138/110 102/118/90 105/117/89
f 84/111/85 85/109/83 109/133/105 108/135/107
f 77/99/73 78/102/76 101/121/93 100/140/112
f 92/106/80 93/108/82 116/130/102 115/128/100
f 85/109/83 86/107/81 110/131/103 109/133/105
f 98/98/72 80/97/71 103/141/113 102/118/90
f 93/108/82 94/110/84 117/132/104 116/130/102
f 86/107/81 87/105/79 111/129/101 110/131/103
f 80/97/71 79/96/70 104/142/114 103/141/113
f 94/110/84 95/112/86 118/134/106 117/132/104
f 87/105/79 88/103/77 112/127/99 111/129/101
f 79/96/70 81/95/69 105/117/89 104/142/114
f 95/112/86 96/114/88 119/136/108 118/134/106
f 88/103/77 89/100/74 99/125/97 112/127/99
f 81/95/69 82/115/69 106/139/111 105/117/89
f 96/114/88 97/116/72 120/138/110 119/136/108
f 78/102/76 90/101/75 113/122/94 101/121/93
f 82/115/69 83/113/87 107/137/109 106/139/111
f 97/116/72 98/98/72 102/118/90 120/138/110
f 90/101/75 91/104/78 114/126/98 113/122/94
f 83/113/87 84/111/85 108/135/107 107/137/109
f 89/100/74 77/99/73 100/140/112 99/125/97
f 91/104/78 92/106/80 115/128/100 114/126/98
f 122/143/115 123/124/96 124/123/95 121/144/116
f 99/125/97 100/140/112 122/143/115 121/144/116
f 113/122/94 99/125/97 121/144/116 124/123/95
f 100/140/112 101/121/93 123/124/96 122/143/115
f 128/120/92 125/119/91 126/145/117 127/146/118
f 104/142/114 105/117/89 128/120/92 127/146/118
f 102/118/90 103/141/113 126/145/117 125/119/91
f 103/141/113 104/142/114 127/146/118 126/145/117
